<svg width="14" height="14" viewBox="0 0 14 14" fill="none" xmlns="http://www.w3.org/2000/svg">
<path d="M9.8 9.03797C9.21667 9.03797 8.72083 8.83122 8.3125 8.41772C7.90417 8.00422 7.7 7.50211 7.7 6.91139C7.7 6.32067 7.90417 5.81857 8.3125 5.40506C8.72083 4.99156 9.21667 4.78481 9.8 4.78481C10.3833 4.78481 10.8792 4.99156 11.2875 5.40506C11.6958 5.81857 11.9 6.32067 11.9 6.91139C11.9 7.50211 11.6958 8.00422 11.2875 8.41772C10.8792 8.83122 10.3833 9.03797 9.8 9.03797ZM5.6 14V11.9443C5.6 11.6962 5.65833 11.4629 5.775 11.2443C5.89167 11.0257 6.055 10.8515 6.265 10.7215C6.59167 10.5207 6.93 10.3464 7.28 10.1987C7.63 10.0511 7.99167 9.92996 8.365 9.83544L9.8 11.7139L11.235 9.83544C11.6083 9.92996 11.9671 10.0511 12.3112 10.1987C12.6554 10.3464 12.9908 10.5207 13.3175 10.7215C13.5275 10.8515 13.6937 11.0257 13.8162 11.2443C13.9387 11.4629 14 11.6962 14 11.9443V14H5.6ZM4.55 11.9443V12.7595H1.05C0.758333 12.7595 0.510417 12.6561 0.30625 12.4494C0.102083 12.2426 0 11.9916 0 11.6962V1.06329C0 0.767932 0.102083 0.516878 0.30625 0.310127C0.510417 0.103376 0.758333 0 1.05 0H11.55C11.8417 0 12.0896 0.103376 12.2937 0.310127C12.4979 0.516878 12.6 0.767932 12.6 1.06329V5.44051C12.3317 4.90886 11.9467 4.48945 11.445 4.18228C10.9433 3.87511 10.395 3.72152 9.8 3.72152V2.83544H2.8V3.89873H8.7675C8.32417 4.06414 7.93042 4.31814 7.58625 4.66076C7.24208 5.00338 6.98833 5.39916 6.825 5.8481H2.8V6.91139H6.65C6.65 7.27764 6.70833 7.62616 6.825 7.95696C6.94167 8.28776 7.105 8.58903 7.315 8.86076H2.8V9.92405H5.5475C5.2325 10.1603 4.9875 10.4587 4.8125 10.819C4.6375 11.1793 4.55 11.5544 4.55 11.9443Z" fill="white"/>
</svg>
