<svg width="15" height="15" viewBox="0 0 15 15" fill="none" xmlns="http://www.w3.org/2000/svg">
<path d="M11.8227 10.4995C12.8173 9.17025 13.2715 7.51359 13.0938 5.86297C12.9161 4.21235 12.1197 2.69033 10.865 1.60328C9.61019 0.516226 7.9902 -0.0551372 6.33111 0.00419878C4.67201 0.0635347 3.09698 0.749165 1.92307 1.92307C0.749165 3.09698 0.0635347 4.67201 0.00419878 6.33111C-0.0551372 7.9902 0.516226 9.61019 1.60328 10.865C2.69033 12.1197 4.21235 12.9161 5.86297 13.0938C7.51359 13.2715 9.17025 12.8173 10.4995 11.8227L13.6768 15L15 13.6792L11.8227 10.4995ZM6.58953 11.262C5.6654 11.262 4.76203 10.988 3.99364 10.4746C3.22526 9.96114 2.62637 9.2314 2.27272 8.37761C1.91908 7.52383 1.82654 6.58435 2.00683 5.67798C2.18712 4.77161 2.63213 3.93905 3.28559 3.28559C3.93905 2.63213 4.77161 2.18712 5.67798 2.00683C6.58435 1.82654 7.52383 1.91908 8.37761 2.27272C9.2314 2.62637 9.96114 3.22526 10.4746 3.99364C10.988 4.76203 11.262 5.6654 11.262 6.58953C11.2609 7.8284 10.7682 9.01619 9.8922 9.8922C9.01619 10.7682 7.8284 11.2609 6.58953 11.262Z" fill="#000225"/>
</svg>
