<svg width="16" height="15" viewBox="0 0 16 15" fill="none" xmlns="http://www.w3.org/2000/svg">
<path d="M12.0991 9.16655C11.6266 9.16694 11.1612 9.2823 10.7432 9.50267C10.3252 9.72305 9.96713 10.0418 9.69983 10.4315L5.63192 8.59471C5.92085 7.89701 5.92197 7.11334 5.63505 6.41482L9.69733 4.56867C10.0935 5.14161 10.6819 5.55359 11.3557 5.72988C12.0296 5.90618 12.7444 5.8351 13.3703 5.52955C13.9963 5.22401 14.492 4.70422 14.7676 4.06448C15.0432 3.42475 15.0803 2.70743 14.8723 2.04266C14.6643 1.37788 14.2249 0.809673 13.6338 0.441104C13.0428 0.0725346 12.3392 -0.0719838 11.6507 0.033763C10.9622 0.13951 10.3344 0.488517 9.88122 1.01748C9.42802 1.54644 9.17941 2.22032 9.18049 2.91688C9.18314 3.08174 9.19986 3.24608 9.23048 3.4081L4.91196 5.3705C4.49719 4.98191 3.97795 4.72293 3.41802 4.62539C2.85809 4.52785 2.28186 4.59599 1.76013 4.82144C1.23839 5.04689 0.793877 5.41983 0.481187 5.89445C0.168498 6.36907 0.00125582 6.92468 7.04474e-06 7.49304C-0.00124173 8.06141 0.163557 8.61775 0.474158 9.09374C0.784759 9.56972 1.22763 9.94462 1.74837 10.1724C2.26911 10.4001 2.84503 10.4708 3.40539 10.3757C3.96574 10.2806 4.48611 10.0239 4.90258 9.63715L9.23236 11.5921C9.20228 11.7539 9.18577 11.918 9.18299 12.0827C9.18286 12.6596 9.35384 13.2236 9.67428 13.7033C9.99473 14.1831 10.4503 14.557 10.9832 14.7779C11.5162 14.9987 12.1027 15.0565 12.6686 14.944C13.2344 14.8315 13.7542 14.5537 14.1621 14.1457C14.5701 13.7378 14.8479 13.218 14.9604 12.6521C15.0729 12.0863 15.0151 11.4998 14.7943 10.9668C14.5735 10.4338 14.1995 9.97829 13.7198 9.65785C13.24 9.3374 12.676 9.16643 12.0991 9.16655ZM12.0991 1.25009C12.4288 1.24997 12.7511 1.34762 13.0253 1.53069C13.2995 1.71376 13.5132 1.97404 13.6394 2.27859C13.7657 2.58315 13.7988 2.9183 13.7345 3.24167C13.6703 3.56504 13.5116 3.86209 13.2785 4.09525C13.0454 4.32842 12.7485 4.48723 12.4251 4.55159C12.1018 4.61596 11.7666 4.58299 11.462 4.45685C11.1574 4.33071 10.897 4.11708 10.7139 3.84296C10.5307 3.56885 10.4329 3.24656 10.4329 2.91688C10.4333 2.47503 10.6089 2.05136 10.9213 1.73887C11.2336 1.42637 11.6572 1.25059 12.0991 1.25009ZM2.93331 9.16655C2.60363 9.16668 2.28131 9.06903 2.00712 8.88595C1.73294 8.70288 1.51921 8.4426 1.39296 8.13805C1.2667 7.83349 1.23361 7.49834 1.29785 7.17497C1.36209 6.85161 1.52079 6.55455 1.75387 6.32139C1.98695 6.08822 2.28394 5.92941 2.60728 5.86505C2.93063 5.80068 3.26579 5.83366 3.5704 5.95979C3.875 6.08593 4.13535 6.29957 4.31853 6.57368C4.5017 6.8478 4.59948 7.17008 4.59948 7.49976C4.59898 7.94156 4.4233 8.36514 4.11096 8.67759C3.79862 8.99005 3.37511 9.16589 2.93331 9.16655ZM12.0991 13.7494C11.7694 13.7494 11.4472 13.6517 11.1731 13.4685C10.899 13.2854 10.6853 13.0251 10.5592 12.7205C10.433 12.4159 10.4 12.0808 10.4643 11.7575C10.5286 11.4342 10.6874 11.1372 10.9205 10.9041C11.1536 10.6709 11.4506 10.5122 11.7739 10.4479C12.0972 10.3836 12.4324 10.4166 12.7369 10.5427C13.0415 10.6689 13.3018 10.8825 13.485 11.1566C13.6681 11.4307 13.7659 11.753 13.7659 12.0827C13.7655 12.5246 13.5898 12.9484 13.2773 13.2609C12.9648 13.5734 12.541 13.7491 12.0991 13.7494Z" fill="#07A74D"/>
</svg>
